<?xml version="1.0" encoding="UTF-8"?>
<!DOCTYPE svg PUBLIC "-//W3C//DTD SVG 1.1//EN" "http://www.w3.org/Graphics/SVG/1.1/DTD/svg11.dtd">
<!-- Creator: CorelDRAW 2018 (评估版) -->
<svg xmlns="http://www.w3.org/2000/svg" xml:space="preserve" width="210mm" height="297mm" version="1.1" style="shape-rendering:geometricPrecision; text-rendering:geometricPrecision; image-rendering:optimizeQuality; fill-rule:evenodd; clip-rule:evenodd"
viewBox="0 0 21000 29700"
 xmlns:xlink="http://www.w3.org/1999/xlink">
 <defs>
  <style type="text/css">
   <![CDATA[
    .str0 {stroke:black;stroke-width:7.62;stroke-linejoin:bevel;stroke-miterlimit:22.9256}
    .fil2 {fill:none}
    .fil3 {fill:#F9423A}
    .fil1 {fill:white}
    .fil0 {fill:#63666A;fill-rule:nonzero}
   ]]>
  </style>
 </defs>
 <g id="图层_x0020_1">
  <metadata id="CorelCorpID_0Corel-Layer"/>
  <path class="fil0" d="M7661.65 11038.55l-89.23 0 0 -521.55 89.23 0 0 521.55zm-96.47 -660.33c0,-14.49 4.44,-26.84 13.17,-36.88 8.89,-10.04 22.06,-14.98 39.34,-14.98 17.45,0 30.62,4.94 39.51,14.98 9.06,10.04 13.5,22.39 13.5,36.88 0,14.49 -4.44,26.67 -13.5,36.38 -8.89,9.72 -22.06,14.49 -39.51,14.49 -17.28,0 -30.45,-4.77 -39.34,-14.49 -8.73,-9.71 -13.17,-21.89 -13.17,-36.38z"/>
  <polygon id="1" class="fil0" points="7986.8,10336.24 8216.29,10909.32 8445.95,10336.24 8565.97,10336.24 8565.97,11038.55 8473.44,11038.55 8473.44,10765.1 8482,10469.92 8251.52,11038.55 8180.57,11038.55 7950.58,10471.24 7959.8,10765.1 7959.8,11038.55 7867.11,11038.55 7867.11,10336.24 "/>
  <polygon id="2" class="fil0" points="9007.51,10605.41 9175.76,10336.24 9284.74,10336.24 9062.99,10684.43 9290.18,11038.55 9180.2,11038.55 9007.51,10764.61 8833.82,11038.55 8724.34,11038.55 8952.03,10684.43 8729.61,10336.24 8838.1,10336.24 "/>
  <path id="3" class="fil0" d="M9849.27 10519.31c0,35.06 -9.22,66.18 -27.66,93.51 -18.44,27.33 -43.46,48.73 -75.07,64.2 36.71,15.81 65.69,38.86 87.09,68.98 21.4,30.29 32.1,64.7 32.1,102.9 0,60.91 -20.41,109.31 -61.41,145.36 -41.15,36.06 -94.99,54.17 -161.83,54.17 -67.66,0 -121.66,-18.11 -162.32,-54.33 -40.67,-36.22 -61.08,-84.62 -61.08,-145.2 0,-37.87 10.37,-72.28 31.11,-102.73 20.75,-30.62 49.39,-53.84 86.11,-69.64 -31.12,-15.48 -55.81,-36.88 -73.76,-64.21 -18.11,-27.33 -27,-58.28 -27,-93.01 0,-59.11 18.93,-106.19 56.8,-140.93 38.03,-34.73 88.08,-52.02 150.14,-52.02 61.74,0 111.62,17.29 149.65,52.02 38.19,34.74 57.13,81.82 57.13,140.93zm-72.77 327.61c0,-39.35 -12.51,-71.45 -37.37,-96.14 -24.86,-24.86 -57.46,-37.21 -97.63,-37.21 -40.17,0 -72.43,12.18 -96.8,36.71 -24.2,24.53 -36.38,56.64 -36.38,96.64 0,39.84 11.85,71.29 35.39,94.17 23.71,22.88 56.64,34.24 98.78,34.24 41.65,0 74.58,-11.52 98.29,-34.57 23.87,-23.05 35.72,-54.33 35.72,-93.84zm-134.01 -447.46c-35.06,0 -63.55,10.86 -85.11,32.59 -21.73,21.73 -32.6,51.37 -32.6,88.57 0,35.89 10.7,64.7 32.1,86.76 21.24,22.06 49.89,33.09 85.61,33.09 35.56,0 64.21,-11.03 85.61,-33.09 21.4,-22.06 31.94,-50.87 31.94,-86.76 0,-35.72 -11.03,-64.86 -33.26,-87.41 -22.22,-22.56 -50.21,-33.75 -84.29,-33.75z"/>
  <polygon id="4" class="fil0" points="10169.81,10336.24 10399.3,10909.32 10628.96,10336.24 10748.98,10336.24 10748.98,11038.55 10656.45,11038.55 10656.45,10765.1 10665.01,10469.92 10434.53,11038.55 10363.58,11038.55 10133.59,10471.24 10142.81,10765.1 10142.81,11038.55 10050.12,11038.55 10050.12,10336.24 "/>
  <path id="5" class="fil0" d="M11054.04 10763.95l0 274.6 -92.52 0 0 -702.31 258.96 0c76.88,0 136.97,19.59 180.6,58.94 43.63,39.18 65.36,91.2 65.36,155.9 0,68.16 -21.24,120.67 -63.88,157.55 -42.64,36.88 -103.72,55.32 -183.07,55.32l-165.45 0zm0 -76.06l166.44 0c49.55,0 87.42,-11.69 113.76,-35.07 26.34,-23.21 39.51,-56.96 39.51,-101.08 0,-41.82 -13.17,-75.24 -39.51,-100.43 -26.34,-25.02 -62.56,-38.02 -108.49,-39.01l-171.71 0 0 275.59z"/>
  <polygon id="6" class="fil0" points="8129.76,9529.05 7825.53,9529.05 7825.53,9776.98 8178.99,9776.98 8178.99,9853.04 7732.84,9853.04 7732.84,9150.73 8174.21,9150.73 8174.21,9226.79 7825.53,9226.79 7825.53,9452.99 8129.76,9452.99 "/>
  <path id="7" class="fil0" d="M8861.72 9761.01c-23.87,34.24 -57.13,59.76 -99.6,76.55 -42.64,16.96 -92.36,25.36 -148.83,25.36 -57.29,0 -108,-13.5 -152.45,-40.34 -44.45,-26.83 -78.69,-65.03 -103.06,-114.58 -24.2,-49.55 -36.71,-107.01 -37.37,-172.37l0 -61.24c0,-105.86 24.7,-188.01 74.09,-246.12 49.39,-58.28 118.69,-87.42 208.09,-87.42 73.42,0 132.36,18.77 176.98,56.14 44.78,37.54 72.1,90.71 82.15,159.53l-92.69 0c-17.29,-93.02 -72.6,-139.61 -165.95,-139.61 -62.06,0 -108.98,21.73 -141.09,65.36 -31.93,43.62 -48.07,106.84 -48.4,189.49l0 57.45c0,78.7 17.95,141.42 54,187.85 36.06,46.59 84.79,69.8 146.19,69.8 34.74,0 65.03,-3.79 91.04,-11.53 26.18,-7.73 47.58,-20.57 64.7,-38.85l0 -157.06 -162.49 0 0 -76.05 254.69 0 0 257.64z"/>
  <path id="8" class="fil0" d="M9082.82 9501.23l35.56 -350.5 359.88 0 0 82.97 -284.15 0 -21.24 191.3c34.41,-20.25 73.59,-30.29 117.22,-30.29 64.04,0 114.91,21.07 152.44,63.38 37.7,42.31 56.47,99.44 56.47,171.38 0,72.44 -19.59,129.4 -58.61,171.05 -39.01,41.65 -93.67,62.4 -163.8,62.4 -62.07,0 -112.61,-17.29 -151.96,-51.7 -39.18,-34.4 -61.57,-81.98 -67,-142.73l84.45 0c5.44,40.17 19.76,70.46 42.97,90.71 23.05,20.42 53.67,30.62 91.54,30.62 41.48,0 74.08,-14.16 97.79,-42.47 23.54,-28.15 35.39,-67.17 35.39,-117.05 0,-46.92 -12.84,-84.46 -38.36,-112.94 -25.51,-28.48 -59.59,-42.64 -102.07,-42.64 -38.85,0 -69.47,8.56 -91.53,25.52l-23.71 19.42 -71.28 -18.43z"/>
  <polygon id="9" class="fil0" points="9938.57,9853.04 9848.85,9853.04 9848.85,9258.56 9668.91,9324.58 9668.91,9243.58 9924.58,9147.77 9938.57,9147.77 "/>
  <path id="10" class="fil0" d="M10708.88 9853.04l-460.14 0 0 -64.37 243.16 -270.16c36.05,-40.83 60.91,-74.08 74.57,-99.6 13.67,-25.68 20.42,-52.19 20.42,-79.52 0,-36.71 -11.03,-66.67 -33.26,-90.21 -22.22,-23.54 -51.69,-35.23 -88.73,-35.23 -44.45,0 -78.86,12.67 -103.39,37.86 -24.69,25.35 -36.88,60.59 -36.88,105.53l-89.39 0c0,-64.54 20.91,-116.89 62.56,-156.73 41.65,-39.84 97.3,-59.76 167.1,-59.76 65.19,0 116.89,17.12 154.75,51.37 38.03,34.24 56.96,79.84 56.96,136.8 0,69.15 -43.95,151.46 -132.2,246.95l-188 203.97 352.47 0 0 73.1z"/>
  <path id="11" class="fil0" d="M11292.66 9553.58c0,104.54 -17.78,182.24 -53.5,233.11 -35.73,50.87 -91.53,76.23 -167.26,76.23 -75.08,0 -130.39,-24.86 -166.45,-74.58 -36.05,-49.72 -54.65,-123.97 -55.97,-222.74l0 -119.2c0,-103.38 17.78,-180.1 53.51,-230.31 35.72,-50.22 91.69,-75.24 167.92,-75.24 75.56,0 131.21,24.2 166.77,72.6 35.72,48.4 54,123.15 54.98,224.23l0 115.9zm-89.23 -122.49c0,-75.56 -10.53,-130.71 -31.77,-165.29 -21.24,-34.57 -54.82,-51.85 -100.75,-51.85 -45.77,0 -79.02,17.28 -99.93,51.69 -20.91,34.41 -31.61,87.25 -32.27,158.7l0 142.9c0,76.06 11.03,132.04 33.09,168.25 21.9,36.22 55.32,54.33 100.1,54.33 43.95,0 76.71,-17.12 98.11,-51.2 21.41,-34.08 32.44,-87.75 33.42,-161.17l0 -146.36z"/>
  <path class="fil1" d="M11091.82 5626.39c-137.94,-204.3 -314.28,-380.64 -518.58,-518.7 -102.12,-69 -211.26,-128.46 -326.1,-177.06 -114.84,-48.6 -235.38,-86.34 -360.36,-111.9 -62.46,-12.78 -126.06,-22.56 -190.62,-29.1 -64.62,-6.6 -130.2,-9.96 -196.56,-9.96 -132.48,0 -261.78,13.44 -386.7,38.94 -124.98,25.56 -245.52,63.24 -360.42,111.84 -114.84,48.54 -224.04,108 -326.16,177 -204.42,138 -380.76,314.34 -518.82,518.7 -69,102.18 -128.46,211.32 -177.06,326.16 -48.54,114.9 -86.28,235.5 -111.84,360.48 -25.56,124.98 -39,254.34 -39,386.88 0,132.6 13.44,262.02 39,387.06 25.62,124.98 63.36,245.58 111.96,360.42 48.6,114.84 108,223.98 177.06,326.16 138.06,204.3 314.4,380.64 518.76,518.64 102.18,69 211.32,128.4 326.16,176.94 114.84,48.6 235.44,86.28 360.42,111.84 62.52,12.78 126.06,22.5 190.62,29.04 7.08,0.72 14.16,1.44 21.24,2.04 57.54,5.22 115.86,7.86 174.78,7.86 59.76,0 118.92,-2.76 177.3,-8.1 6.42,-0.54 12.84,-1.2 19.26,-1.86 64.5,-6.54 128.1,-16.32 190.62,-29.1 124.92,-25.56 245.46,-63.3 360.3,-111.9 114.84,-48.6 223.98,-108 326.1,-177 102.12,-69 197.28,-147.6 284.16,-234.48 347.4,-347.46 562.26,-827.4 562.26,-1357.56 0,-397.56 -120.84,-766.86 -327.78,-1073.28zm-1351.86 704.16l-94.38 62.16c-1.86,1.08 -3.66,2.22 -5.52,3.36 -18.6,11.7 -38.4,28.8 -40.92,48.3 -0.36,2.58 -0.36,5.22 -0.12,7.86 1.44,17.22 13.8,35.4 25.08,49.62l275.46 336.3c7.92,9.48 15.9,19.32 23.22,29.58 15.78,22.08 28.86,46.08 33.3,72.42 3.84,22.98 1.14,47.7 -8.52,68.82 -11.88,25.98 -34.26,46.44 -58.14,62.7 -3.54,2.46 -7.14,4.8 -10.8,7.08l-270.18 178.02 -126.72 83.52 -15.36 10.08 -60.96 40.14c-76.26,50.22 -152.64,100.26 -229.02,150.18l746.76 0c13.68,0 27.3,0 40.92,-0.48 23.58,-0.72 47.22,-2.76 71.1,-7.98 23.58,-5.16 47.46,-13.44 64.44,-28.26 23.64,-20.64 34.02,-53.88 41.4,-87.72 3.42,-15.42 6.18,-30.96 9.24,-45.48 14.58,-89.46 29.28,-178.86 44.1,-268.32l9.72 -58.56 5.22 -31.38 12.9 -77.82 2.22 -13.32 8.46 -50.64 6.96 -41.76 0.3 -1.74 14.94 -89.76 10.98 -65.64 4.44 -26.4 15.54 -92.94 350.52 -236.16c5.46,-2.94 11.16,-5.16 17.16,-7.08 0.12,0 86.7,-27.72 75.24,79.92 -1.14,10.56 -3,21.06 -4.62,31.2l-202.5 1223.34c-0.54,5.22 -1.2,10.38 -2.04,15.48 -9.18,56.52 -39.48,110.58 -82.14,151.38 -49.62,47.46 -116.04,76.86 -182.58,82.56 -6.18,0.54 -12.3,0.84 -18.48,0.96l-1190.1 -0.3c-9.66,0.12 -19.38,-0.06 -29.1,-0.48 -68.04,-2.88 -137.64,-19.2 -194.4,-57.6 -51.54,-34.86 -92.46,-88.02 -109.8,-147.24 -8.7,-29.64 -11.46,-60.9 -9.24,-91.68 2.34,-32.82 10.32,-65.16 22.8,-95.52 6.72,-16.38 14.7,-32.16 23.82,-47.28 9.6,-16.08 20.46,-31.44 32.22,-45.96 12.66,-15.54 26.34,-30.12 40.92,-43.86 7.68,-7.2 15.6,-14.22 23.7,-20.88 4.2,-3.42 8.46,-6.78 12.72,-10.14 4.32,-3.42 8.64,-6.9 13.26,-9.9 3.48,-2.34 7.2,-4.44 10.8,-6.6 10.08,-6.06 19.68,-12.78 29.4,-19.38 9.78,-6.54 19.62,-12.96 29.4,-19.38 19.68,-12.84 39.24,-25.8 58.8,-38.76 39.12,-25.86 78.3,-51.66 117.42,-77.46 39.18,-25.8 78.3,-51.66 117.42,-77.46 7.74,-5.1 15.48,-10.2 23.16,-15.3l94.38 -62.16c1.86,-1.08 3.66,-2.16 5.52,-3.3 18.6,-11.7 38.4,-28.8 40.92,-48.3 1.86,-14.4 -5.64,-30.06 -14.94,-43.92 -3.24,-4.8 -6.66,-9.36 -9.96,-13.56l-275.52 -336.3c-7.92,-9.48 -15.84,-19.32 -23.22,-29.58 -15.78,-22.08 -28.86,-46.08 -33.3,-72.42 -3.84,-22.98 -1.14,-47.7 8.52,-68.82 11.88,-25.98 34.26,-46.44 58.14,-62.76 3.54,-2.4 7.14,-4.74 10.8,-7.02l270.54 -178.2 126.36 -83.34 15.9 -10.44 60.42 -39.84c76.26,-50.16 152.64,-100.26 229.08,-150.18l-746.82 0c-13.68,0 -27.3,0.06 -40.92,0.48 -23.58,0.78 -47.16,2.82 -71.04,8.04 -23.64,5.16 -47.46,13.44 -64.5,28.26 -23.64,20.64 -34.02,53.88 -41.4,87.72 -3.36,15.42 -6.12,30.9 -9.24,45.42 -14.58,89.46 -29.28,178.92 -44.1,268.32l-9.66 58.56 -5.22 31.44 -12.96 77.76 -2.22 13.38 -8.4 50.58 -6.96 41.82 -0.3 1.8 -15 89.7 -10.98 65.64 -4.44 26.34 -15.54 92.94 -350.52 236.22c-5.46,2.94 -11.16,5.1 -17.16,7.02 -36,18 -82.86,-8.28 -75.24,-79.86 1.14,-10.56 3.06,-21.06 4.68,-31.2l202.5 -1223.4c0.48,-5.16 1.14,-10.32 1.98,-15.48 9.24,-56.46 39.48,-110.58 82.14,-151.32 49.62,-47.46 116.04,-76.86 182.58,-82.56 6.18,-0.54 12.3,-0.9 18.48,-1.02l1190.1 0.3c9.72,-0.06 19.38,0.06 29.1,0.48 68.04,2.94 137.7,19.26 194.4,57.6 51.6,34.92 92.46,88.08 109.8,147.24 8.7,29.7 11.46,60.9 9.24,91.68 -2.34,32.88 -10.32,65.22 -22.8,95.58 -6.72,16.38 -14.7,32.16 -23.76,47.28 -9.66,16.08 -20.46,31.38 -32.28,45.96 -12.6,15.48 -26.34,30.12 -40.92,43.8 -7.68,7.26 -15.54,14.22 -23.7,20.88 -4.2,3.48 -8.46,6.78 -12.72,10.14 -4.32,3.48 -8.64,6.9 -13.2,9.96 -3.54,2.34 -7.2,4.38 -10.86,6.6 -10.08,6 -19.68,12.78 -29.4,19.32 -9.72,6.6 -19.56,12.96 -29.4,19.38 -19.68,12.84 -39.24,25.86 -58.8,38.76 -39.12,25.92 -78.3,51.72 -117.42,77.52 -39.18,25.8 -78.3,51.66 -117.42,77.46 -7.74,5.1 -15.42,10.2 -23.16,15.24z"/>
 </g>
 <g id="_0">
  <metadata id="CorelCorpID_1Corel-Layer"/>
  <line class="fil2 str0" x1="-17440" y1="36440" x2="-17440" y2= "-6740" />
  <line class="fil2 str0" x1="-17440" y1="36440" x2="38440" y2= "36440" />
  <line class="fil2 str0" x1="-17440" y1="-6740" x2="38440" y2= "-6740" />
  <line class="fil2 str0" x1="38440" y1="36440" x2="38440" y2= "-6740" />
  <line class="fil2" x1="8713.72" y1="6846.97" x2="8363.2" y2= "7083.19" />
  <line class="fil2" x1="10636.54" y1="6316.33" x2="10286.02" y2= "6552.49" />
  <line class="fil2" x1="8477.98" y1="5755.75" x2="8275.48" y2= "6979.15" />
  <line class="fil2" x1="10724.32" y1="6420.37" x2="10521.82" y2= "7643.71" />
  <line class="fil2" x1="9100.18" y1="6561.37" x2="9375.7" y2= "6897.67" />
  <line class="fil2" x1="9624.1" y1="6501.85" x2="9899.56" y2= "6838.15" />
  <line class="fil2" x1="9176.38" y1="7540.69" x2="9923.14" y2= "7540.69" />
  <line class="fil2" x1="10236.58" y1="7894.09" x2="9046.48" y2= "7893.79" />
  <line class="fil2" x1="9823.42" y1="5858.77" x2="9076.6" y2= "5858.77" />
  <line class="fil2" x1="9953.26" y1="5505.67" x2="8763.16" y2= "5505.37" />
  <path class="fil2" d="M8805.4 6297.01c14.82,-89.4 29.52,-178.86 44.1,-268.32"/>
  <path class="fil2" d="M9324.76 8612.47c58.2,5.28 116.64,7.86 175.14,7.86"/>
  <path class="fil2" d="M9499.9 8620.33c59.1,0 118.2,-2.64 177.06,-8.04"/>
  <path class="fil2" d="M10753.48 8154.73c2.16,-1.86 4.26,-3.72 6.42,-5.58"/>
  <path class="fil2" d="M10759.9 8149.15c21.66,-18.84 42.84,-38.1 63.66,-57.9"/>
  <path class="fil2" d="M10823.56 8091.25c1.56,-1.5 3.12,-3 4.68,-4.5"/>
  <path class="fil2" d="M9676.96 8612.29c3.12,-0.3 6.18,-0.6 9.24,-0.84"/>
  <path class="fil2" d="M11419.6 6699.67c0,-1060.38 -859.62,-1920 -1920,-1920 -1060.38,0 -1920,859.56 -1920,1920 0,1060.38 859.62,1920 1920,1920 1060.38,0 1920,-859.62 1920,-1920z"/>
  <path class="fil2" d="M9017.38 7893.31c9.72,0.42 19.44,0.6 29.1,0.48"/>
  <path class="fil2" d="M9121.12 6320.77c-3.66,2.28 -7.26,4.62 -10.8,7.02"/>
  <path class="fil2" d="M8763.16 5505.37c-6.18,0.12 -12.3,0.48 -18.48,1.02"/>
  <path class="fil2" d="M8479.96 5740.27c-0.84,5.16 -1.5,10.32 -1.98,15.48"/>
  <path class="fil2" d="M9354.16 7006.75c1.86,-1.08 3.66,-2.16 5.52,-3.3"/>
  <path class="fil2" d="M9176.38 7540.69c76.38,-49.92 152.76,-99.96 229.02,-150.18"/>
  <path class="fil2" d="M9176.38 7540.69c76.38,-49.92 152.76,-99.96 229.02,-150.18"/>
  <path class="fil2" d="M9823.42 5858.77c-76.44,49.92 -152.82,100.02 -229.08,150.18"/>
  <path class="fil2" d="M9823.42 5858.77c-76.44,49.92 -152.82,100.02 -229.08,150.18"/>
  <path class="fil2" d="M10194.34 7102.45c-14.82,89.46 -29.52,178.86 -44.1,268.32"/>
  <path class="fil2" d="M9982.36 5506.15c-9.72,-0.42 -19.38,-0.54 -29.1,-0.48"/>
  <path class="fil2" d="M9878.62 7078.75c3.66,-2.28 7.26,-4.62 10.8,-7.08"/>
  <path class="fil2" d="M10236.58 7894.09c6.18,-0.12 12.3,-0.42 18.48,-0.96"/>
  <path class="fil2" d="M10519.78 7659.19c0.84,-5.1 1.5,-10.26 2.04,-15.48"/>
  <path class="fil2" d="M9645.58 6392.71c-1.86,1.08 -3.66,2.22 -5.52,3.36"/>
  <path class="fil2" d="M9645.58 6392.71c-1.86,1.08 -3.66,2.22 -5.52,3.36"/>
  <line class="fil2" x1="8733.7" y1="6727.69" x2="8744.68" y2= "6662.05" />
  <path class="fil2" d="M8849.5 6028.69c3.12,-14.52 5.88,-30 9.24,-45.42"/>
  <path class="fil2" d="M9035.68 5859.25c13.62,-0.42 27.24,-0.48 40.92,-0.48"/>
  <line class="fil2" x1="9533.92" y1="6048.79" x2="9518.02" y2= "6059.23" />
  <line class="fil2" x1="9354.16" y1="7006.75" x2="9259.78" y2= "7068.91" />
  <path class="fil2" d="M10150.24 7370.77c-3.06,14.52 -5.82,30.06 -9.24,45.48"/>
  <path class="fil2" d="M9964.06 7540.21c-13.62,0.48 -27.24,0.48 -40.92,0.48"/>
  <line class="fil2" x1="9405.4" y1="7390.51" x2="9466.36" y2= "7350.37" />
  <line class="fil2" x1="9466.36" y1="7350.37" x2="9481.72" y2= "7340.29" />
  <line class="fil2" x1="9481.72" y1="7340.29" x2="9608.44" y2= "7256.77" />
  <line class="fil2" x1="9608.44" y1="7256.77" x2="9878.62" y2= "7078.75" />
  <path class="fil2" d="M9624.1 6501.85c-11.52,-14.04 -23.76,-32.34 -25.14,-49.62"/>
  <path class="fil2" d="M9598.96 6452.23c-0.24,-2.64 -0.18,-5.28 0.18,-7.86 2.58,-19.56 22.32,-36.66 40.92,-48.3"/>
  <path class="fil2" d="M9640.06 6396.07c-18.6,11.7 -38.4,28.8 -40.92,48.3 -0.36,2.58 -0.36,5.22 -0.12,7.86"/>
  <path class="fil2" d="M9599.02 6452.23c1.44,17.22 13.8,35.4 25.08,49.62"/>
  <path class="fil2" d="M9899.56 6838.15c7.92,9.48 15.9,19.32 23.22,29.58"/>
  <path class="fil2" d="M9922.78 6867.73c15.78,22.08 28.86,46.08 33.3,72.42 3.84,22.98 1.14,47.7 -8.52,68.82 -11.88,25.98 -34.26,46.44 -58.14,62.7"/>
  <line class="fil2" x1="9878.62" y1="7078.75" x2="9608.44" y2= "7256.77" />
  <line class="fil2" x1="9608.44" y1="7256.77" x2="9481.72" y2= "7340.29" />
  <line class="fil2" x1="9481.72" y1="7340.29" x2="9466.36" y2= "7350.37" />
  <line class="fil2" x1="9466.36" y1="7350.37" x2="9405.4" y2= "7390.51" />
  <path class="fil2" d="M9923.14 7540.69c13.68,0 27.3,0 40.92,-0.48"/>
  <path class="fil2" d="M9964.06 7540.21c23.58,-0.72 47.22,-2.76 71.1,-7.98 23.58,-5.16 47.46,-13.44 64.44,-28.26 23.64,-20.64 34.02,-53.88 41.4,-87.72"/>
  <path class="fil2" d="M10141 7416.25c3.42,-15.42 6.18,-30.96 9.24,-45.48"/>
  <line class="fil2" x1="10194.34" y1="7102.45" x2="10204.06" y2= "7043.89" />
  <line class="fil2" x1="10204.06" y1="7043.89" x2="10209.28" y2= "7012.51" />
  <line class="fil2" x1="10209.28" y1="7012.51" x2="10222.18" y2= "6934.69" />
  <line class="fil2" x1="10222.18" y1="6934.69" x2="10224.4" y2= "6921.37" />
  <line class="fil2" x1="10224.4" y1="6921.37" x2="10232.86" y2= "6870.73" />
  <line class="fil2" x1="10232.86" y1="6870.73" x2="10239.82" y2= "6828.97" />
  <line class="fil2" x1="10239.82" y1="6828.97" x2="10240.12" y2= "6827.23" />
  <line class="fil2" x1="10240.12" y1="6827.23" x2="10255.06" y2= "6737.47" />
  <line class="fil2" x1="10255.06" y1="6737.47" x2="10266.04" y2= "6671.83" />
  <line class="fil2" x1="10266.04" y1="6671.83" x2="10270.48" y2= "6645.43" />
  <line class="fil2" x1="10270.48" y1="6645.43" x2="10286.02" y2= "6552.49" />
  <path class="fil2" d="M10636.54 6316.33c5.46,-2.94 11.16,-5.16 17.16,-7.08"/>
  <path class="fil2" d="M10653.7 6309.25c0.12,0 0.24,-0.06 0.3,-0.06 11.88,-3.78 24.84,-6.48 36.42,-3.3 13.32,3.72 24.72,15.18 31.38,27.96 8.82,16.98 9.18,36.18 7.14,55.32"/>
  <path class="fil2" d="M10728.94 6389.17c-1.14,10.56 -3,21.06 -4.62,31.2"/>
  <path class="fil2" d="M10519.78 7659.19c-9.18,56.52 -39.48,110.58 -82.14,151.38 -49.62,47.46 -116.04,76.86 -182.58,82.56"/>
  <path class="fil2" d="M9017.38 7893.31c-68.04,-2.88 -137.64,-19.2 -194.4,-57.6 -51.54,-34.86 -92.46,-88.02 -109.8,-147.24 -8.7,-29.64 -11.46,-60.9 -9.24,-91.68 2.34,-32.82 10.32,-65.16 22.8,-95.52 6.72,-16.38 14.7,-32.16 23.82,-47.28 9.6,-16.08 20.46,-31.44 32.22,-45.96 12.66,-15.54 26.34,-30.12 40.92,-43.86 7.68,-7.2 15.6,-14.22 23.7,-20.88 4.2,-3.42 8.46,-6.78 12.72,-10.14 4.32,-3.42 8.64,-6.9 13.26,-9.9 3.48,-2.34 7.2,-4.44 10.8,-6.6 10.08,-6.06 19.68,-12.78 29.4,-19.38 9.78,-6.54 19.62,-12.96 29.4,-19.38 19.68,-12.84 39.24,-25.8 58.8,-38.76 39.12,-25.86 78.3,-51.66 117.42,-77.46 39.18,-25.8 78.3,-51.66 117.42,-77.46 7.74,-5.1 15.48,-10.2 23.16,-15.3"/>
  <path class="fil2" d="M9359.68 7003.45c18.6,-11.7 38.4,-28.8 40.92,-48.3 1.86,-14.4 -5.64,-30.06 -14.94,-43.92"/>
  <path class="fil2" d="M9385.66 6911.23c-3.24,-4.8 -6.66,-9.36 -9.96,-13.56"/>
  <path class="fil2" d="M9100.18 6561.37c-7.92,-9.48 -15.84,-19.32 -23.22,-29.58"/>
  <path class="fil2" d="M9076.96 6531.79c-15.78,-22.08 -28.86,-46.08 -33.3,-72.42 -3.84,-22.98 -1.14,-47.7 8.52,-68.82 11.88,-25.98 34.26,-46.44 58.14,-62.76"/>
  <line class="fil2" x1="9121.12" y1="6320.77" x2="9391.66" y2= "6142.57" />
  <line class="fil2" x1="9391.66" y1="6142.57" x2="9518.02" y2= "6059.23" />
  <line class="fil2" x1="9533.92" y1="6048.79" x2="9594.34" y2= "6008.95" />
  <path class="fil2" d="M9076.6 5858.77c-13.68,0 -27.3,0.06 -40.92,0.48"/>
  <path class="fil2" d="M9035.68 5859.25c-23.58,0.78 -47.16,2.82 -71.04,8.04 -23.64,5.16 -47.46,13.44 -64.5,28.26 -23.64,20.64 -34.02,53.88 -41.4,87.72"/>
  <path class="fil2" d="M8858.74 5983.27c-3.36,15.42 -6.12,30.9 -9.24,45.42"/>
  <line class="fil2" x1="8805.4" y1="6297.01" x2="8795.74" y2= "6355.57" />
  <line class="fil2" x1="8795.74" y1="6355.57" x2="8790.52" y2= "6387.01" />
  <line class="fil2" x1="8790.52" y1="6387.01" x2="8777.56" y2= "6464.77" />
  <line class="fil2" x1="8777.56" y1="6464.77" x2="8775.34" y2= "6478.15" />
  <line class="fil2" x1="8775.34" y1="6478.15" x2="8766.94" y2= "6528.73" />
  <line class="fil2" x1="8766.94" y1="6528.73" x2="8759.98" y2= "6570.55" />
  <line class="fil2" x1="8759.98" y1="6570.55" x2="8759.68" y2= "6572.35" />
  <line class="fil2" x1="8759.68" y1="6572.35" x2="8744.68" y2= "6662.05" />
  <line class="fil2" x1="8733.7" y1="6727.69" x2="8729.26" y2= "6754.03" />
  <line class="fil2" x1="8729.26" y1="6754.03" x2="8713.72" y2= "6846.97" />
  <path class="fil2" d="M8363.2 7083.19c-5.46,2.94 -11.16,5.1 -17.16,7.02"/>
  <path class="fil2" d="M8346.04 7090.21c-0.12,0.06 -0.18,0.06 -0.3,0.12 -11.82,3.72 -24.84,6.42 -36.42,3.24 -13.26,-3.66 -24.72,-15.18 -31.38,-27.96 -8.82,-16.92 -9.18,-36.12 -7.14,-55.26"/>
  <path class="fil2" d="M8270.8 7010.35c1.14,-10.56 3.06,-21.06 4.68,-31.2"/>
  <path class="fil2" d="M8479.96 5740.27c9.24,-56.46 39.48,-110.58 82.14,-151.32 49.62,-47.46 116.04,-76.86 182.58,-82.56"/>
  <path class="fil2" d="M9982.36 5506.15c68.04,2.94 137.7,19.26 194.4,57.6 51.6,34.92 92.46,88.08 109.8,147.24 8.7,29.7 11.46,60.9 9.24,91.68 -2.34,32.88 -10.32,65.22 -22.8,95.58 -6.72,16.38 -14.7,32.16 -23.76,47.28 -9.66,16.08 -20.46,31.38 -32.28,45.96 -12.6,15.48 -26.34,30.12 -40.92,43.8 -7.68,7.26 -15.54,14.22 -23.7,20.88 -4.2,3.48 -8.46,6.78 -12.72,10.14 -4.32,3.48 -8.64,6.9 -13.2,9.96 -3.54,2.34 -7.2,4.38 -10.86,6.6 -10.08,6 -19.68,12.78 -29.4,19.32 -9.72,6.6 -19.56,12.96 -29.4,19.38 -19.68,12.84 -39.24,25.86 -58.8,38.76 -39.12,25.92 -78.3,51.72 -117.42,77.52 -39.18,25.8 -78.3,51.66 -117.42,77.46 -7.74,5.1 -15.42,10.2 -23.16,15.24"/>
  <line class="fil2" x1="9739.96" y1="6330.55" x2="9645.58" y2= "6392.71" />
  <path class="fil2" d="M9434.5 4780.27c-43.74,1.44 -87.42,4.38 -130.98,8.82 -63.96,6.48 -127.62,16.2 -190.68,29.1 -123.36,25.26 -244.38,62.82 -360.48,111.9 -114.18,48.3 -223.56,107.76 -326.22,177.12 -101.94,68.88 -197.28,147.54 -284.28,234.54 -87,87 -165.66,182.34 -234.54,284.28 -69.36,102.66 -128.82,212.04 -177.06,326.22 -49.14,116.1 -86.7,237.12 -111.96,360.48 -12.9,63.06 -22.62,126.72 -29.1,190.68 -5.7,56.16 -8.94,112.62 -9.72,169.14"/>
  <path class="fil2" d="M7579.48 6726.79c0.78,56.52 4.02,113.04 9.72,169.32 6.48,63.96 16.2,127.62 29.1,190.68 25.26,123.36 62.82,244.38 111.96,360.48 48.24,114.18 107.7,223.56 177.06,326.22 68.88,101.94 147.54,197.28 234.54,284.28 87,87 182.34,165.66 284.28,234.54 102.66,69.36 212.04,128.82 326.22,177.06 116.1,49.14 237.12,86.7 360.48,111.96 63.06,12.9 126.72,22.62 190.68,29.1 7.08,0.72 14.16,1.38 21.24,2.04"/>
  <path class="fil2" d="M9686.2 8611.45c3.36,-0.36 6.66,-0.66 10.02,-1.02 63.96,-6.48 127.62,-16.2 190.68,-29.1 123.36,-25.26 244.38,-62.82 360.48,-111.96 114.18,-48.24 223.56,-107.7 326.22,-177.06 62.58,-42.3 122.7,-88.26 179.88,-137.58"/>
  <path class="fil2" d="M10828.24 8086.75c9.96,-9.54 19.86,-19.2 29.64,-28.98 87,-87 165.66,-182.34 234.54,-284.28 69.36,-102.66 128.82,-212.04 177.12,-326.22 49.08,-116.1 86.64,-237.12 111.9,-360.48 12.9,-63.06 22.62,-126.72 29.1,-190.68 6.54,-64.2 9.84,-128.7 9.96,-193.2"/>
  <line class="fil2" x1="11420.5" y1="6702.91" x2="11420.5" y2= "6699.67" />
  <line class="fil2" x1="11420.5" y1="6699.67" x2="11420.5" y2= "6696.43" />
  <path class="fil2" d="M11420.5 6696.43c-0.12,-64.5 -3.42,-128.94 -9.96,-193.02 -6.48,-63.96 -16.2,-127.62 -29.1,-190.68 -25.26,-123.36 -62.82,-244.38 -111.9,-360.48 -48.3,-114.18 -107.76,-223.56 -177.12,-326.22 -68.88,-101.94 -147.54,-197.28 -234.54,-284.28 -87,-87 -182.34,-165.66 -284.28,-234.54 -102.66,-69.36 -212.04,-128.82 -326.22,-177.12 -116.1,-49.08 -237.12,-86.64 -360.48,-111.9 -63.06,-12.9 -126.72,-22.62 -190.68,-29.1 -42.96,-4.38 -86.04,-7.32 -129.12,-8.76"/>
 </g>
 <g id="INTFCLR_3">
  <metadata id="CorelCorpID_2Corel-Layer"/>
  <path class="fil3" d="M8275.48 6979.15l202.5 -1223.4c0.48,-5.16 1.14,-10.32 1.98,-15.48 9.24,-56.46 39.48,-110.58 82.14,-151.32 49.62,-47.46 116.04,-76.86 182.58,-82.56 6.18,-0.54 12.3,-0.9 18.48,-1.02l1190.1 0.3c9.72,-0.06 19.38,0.06 29.1,0.48 68.04,2.94 137.7,19.26 194.4,57.6 51.6,34.92 92.46,88.08 109.8,147.24 8.7,29.7 11.46,60.9 9.24,91.68 -2.34,32.88 -10.32,65.22 -22.8,95.58 -6.72,16.38 -14.7,32.16 -23.76,47.28 -9.66,16.08 -20.46,31.38 -32.28,45.96 -12.6,15.48 -26.34,30.12 -40.92,43.8 -7.68,7.26 -15.54,14.22 -23.7,20.88 -4.2,3.48 -8.46,6.78 -12.72,10.14 -4.32,3.48 -8.64,6.9 -13.2,9.96 -3.54,2.34 -7.2,4.38 -10.86,6.6 -10.08,6 -19.68,12.78 -29.4,19.32 -9.72,6.6 -19.56,12.96 -29.4,19.38 -19.68,12.84 -39.24,25.86 -58.8,38.76 -39.12,25.92 -78.3,51.72 -117.42,77.52 -39.18,25.8 -78.3,51.66 -117.42,77.46 -7.74,5.1 -15.42,10.2 -23.16,15.24l-94.38 62.16c-1.86,1.08 -3.66,2.22 -5.52,3.36 -18.6,11.7 -38.4,28.8 -40.92,48.3 -0.36,2.58 -0.36,5.22 -0.12,7.86 1.44,17.22 13.8,35.4 25.08,49.62l275.46 336.3c7.92,9.48 15.9,19.32 23.22,29.58 15.78,22.08 28.86,46.08 33.3,72.42 3.84,22.98 1.14,47.7 -8.52,68.82 -11.88,25.98 -34.26,46.44 -58.14,62.7 -3.54,2.46 -7.14,4.8 -10.8,7.08l-270.18 178.02 -126.72 83.52 -15.36 10.08 -60.96 40.14c-76.26,50.22 -152.64,100.26 -229.02,150.18l746.76 0c13.68,0 27.3,0 40.92,-0.48 23.58,-0.72 47.22,-2.76 71.1,-7.98 23.58,-5.16 47.46,-13.44 64.44,-28.26 23.64,-20.64 34.02,-53.88 41.4,-87.72 3.42,-15.42 6.18,-30.96 9.24,-45.48 14.58,-89.46 29.28,-178.86 44.1,-268.32l9.72 -58.56 5.22 -31.38 12.9 -77.82 2.22 -13.32 8.46 -50.64 6.96 -41.76 0.3 -1.74 14.94 -89.76 10.98 -65.64 4.44 -26.4 15.54 -92.94 350.52 -236.16c5.46,-2.94 11.16,-5.16 17.16,-7.08 0.12,0 86.7,-27.72 75.24,79.92 -1.14,10.56 -3,21.06 -4.62,31.2l-202.5 1223.34c-0.54,5.22 -1.2,10.38 -2.04,15.48 -9.18,56.52 -39.48,110.58 -82.14,151.38 -49.62,47.46 -116.04,76.86 -182.58,82.56 -6.18,0.54 -12.3,0.84 -18.48,0.96l-1190.1 -0.3c-9.66,0.12 -19.38,-0.06 -29.1,-0.48 -68.04,-2.88 -137.64,-19.2 -194.4,-57.6 -51.54,-34.86 -92.46,-88.02 -109.8,-147.24 -8.7,-29.64 -11.46,-60.9 -9.24,-91.68 2.34,-32.82 10.32,-65.16 22.8,-95.52 6.72,-16.38 14.7,-32.16 23.82,-47.28 9.6,-16.08 20.46,-31.44 32.22,-45.96 12.66,-15.54 26.34,-30.12 40.92,-43.86 7.68,-7.2 15.6,-14.22 23.7,-20.88 4.2,-3.42 8.46,-6.78 12.72,-10.14 4.32,-3.42 8.64,-6.9 13.26,-9.9 3.48,-2.34 7.2,-4.44 10.8,-6.6 10.08,-6.06 19.68,-12.78 29.4,-19.38 9.78,-6.54 19.62,-12.96 29.4,-19.38 19.68,-12.84 39.24,-25.8 58.8,-38.76 39.12,-25.86 78.3,-51.66 117.42,-77.46 39.18,-25.8 78.3,-51.66 117.42,-77.46 7.74,-5.1 15.48,-10.2 23.16,-15.3l94.38 -62.16c1.86,-1.08 3.66,-2.16 5.52,-3.3 18.6,-11.7 38.4,-28.8 40.92,-48.3 1.86,-14.4 -5.64,-30.06 -14.94,-43.92 -3.24,-4.8 -6.66,-9.36 -9.96,-13.56l-275.52 -336.3c-7.92,-9.48 -15.84,-19.32 -23.22,-29.58 -15.78,-22.08 -28.86,-46.08 -33.3,-72.42 -3.84,-22.98 -1.14,-47.7 8.52,-68.82 11.88,-25.98 34.26,-46.44 58.14,-62.76 3.54,-2.4 7.14,-4.74 10.8,-7.02l270.54 -178.2 126.36 -83.34 15.9 -10.44 60.42 -39.84c76.26,-50.16 152.64,-100.26 229.08,-150.18l-746.82 0c-13.68,0 -27.3,0.06 -40.92,0.48 -23.58,0.78 -47.16,2.82 -71.04,8.04 -23.64,5.16 -47.46,13.44 -64.5,28.26 -23.64,20.64 -34.02,53.88 -41.4,87.72 -3.36,15.42 -6.12,30.9 -9.24,45.42 -14.58,89.46 -29.28,178.92 -44.1,268.32l-9.66 58.56 -5.22 31.44 -12.96 77.76 -2.22 13.38 -8.4 50.58 -6.96 41.82 -0.3 1.8 -15 89.7 -10.98 65.64 -4.44 26.34 -15.54 92.94 -350.52 236.22c-5.46,2.94 -11.16,5.1 -17.16,7.02 -36,18 -82.86,-8.28 -75.24,-79.86 1.14,-10.56 3.06,-21.06 4.68,-31.2zm3144.12 -279.48c0,-397.56 -120.84,-766.86 -327.78,-1073.28 -137.94,-204.3 -314.28,-380.64 -518.58,-518.7 -102.12,-69 -211.26,-128.46 -326.1,-177.06 -114.84,-48.6 -235.38,-86.34 -360.36,-111.9 -62.46,-12.78 -126.06,-22.56 -190.62,-29.1 -64.62,-6.6 -130.2,-9.96 -196.56,-9.96 -132.48,0 -261.78,13.44 -386.7,38.94 -124.98,25.56 -245.52,63.24 -360.42,111.84 -114.84,48.54 -224.04,108 -326.16,177 -204.42,138 -380.76,314.34 -518.82,518.7 -69,102.18 -128.46,211.32 -177.06,326.16 -48.54,114.9 -86.28,235.5 -111.84,360.48 -25.56,124.98 -39,254.34 -39,386.88 0,132.6 13.44,262.02 39,387.06 25.62,124.98 63.36,245.58 111.96,360.42 48.6,114.84 108,223.98 177.06,326.16 138.06,204.3 314.4,380.64 518.76,518.64 102.18,69 211.32,128.4 326.16,176.94 114.84,48.6 235.44,86.28 360.42,111.84 62.52,12.78 126.06,22.5 190.62,29.04 7.08,0.72 14.16,1.44 21.24,2.04 57.54,5.22 115.86,7.86 174.78,7.86 59.76,0 118.92,-2.76 177.3,-8.1 6.42,-0.54 12.84,-1.2 19.26,-1.86 64.5,-6.54 128.1,-16.32 190.62,-29.1 124.92,-25.56 245.46,-63.3 360.3,-111.9 114.84,-48.6 223.98,-108 326.1,-177 102.12,-69 197.28,-147.6 284.16,-234.48 347.4,-347.46 562.26,-827.4 562.26,-1357.56z"/>
 </g>
</svg>
